<svg width="24" height="24" viewBox="0 0 24 24" fill="none" xmlns="http://www.w3.org/2000/svg">
  <path d="M14.97 10.42H9.43a.75.75 0 0 1 0-1.5h5.54a.75.75 0 0 1 0 1.5Z" fill="currentColor"/>
  <path d="M19.63 22a.801.801 0 0 1-.45-.14l-7-5.16-6.98 5.19a.76.76 0 0 1-.78.06.73.73 0 0 1-.42-.67V5.59A3.63 3.63 0 0 1 7.65 2h9.1a3.63 3.63 0 0 1 3.63 3.62v15.66a.73.73 0 0 1-.42.67.641.641 0 0 1-.33.05Zm-7.43-7a.76.76 0 0 1 .45.15l6.23 4.61V5.59a2.13 2.13 0 0 0-2.13-2.12h-9.1a2.13 2.13 0 0 0-2.13 2.12V19.8l6.23-4.61a.759.759 0 0 1 .45-.19Z" fill="currentColor"/>
</svg>