<svg width="24" height="24" viewBox="0 0 24 24" fill="none" xmlns="http://www.w3.org/2000/svg">
  <path fill-rule="evenodd" clip-rule="evenodd" d="M12 3.538A8.462 8.462 0 0 0 3.538 12c0 1.4.34 2.719.94 3.88a.77.77 0 0 1 .086.353v3.203h3.203a.77.77 0 0 1 .353.086A8.461 8.461 0 1 0 12 3.539ZM2 12C2 6.477 6.477 2 12 2s10 4.477 10 10-4.477 10-10 10a9.962 9.962 0 0 1-4.416-1.026h-3.79a.77.77 0 0 1-.768-.769v-3.789A9.962 9.962 0 0 1 2 12Z" fill="currentColor"/>
  <path d="M9.949 12a1.026 1.026 0 1 1-2.052 0 1.026 1.026 0 0 1 2.052 0Zm3.077 0a1.026 1.026 0 1 1-2.052 0 1.026 1.026 0 0 1 2.052 0Zm3.077 0a1.026 1.026 0 1 1-2.052 0 1.026 1.026 0 0 1 2.052 0Z" fill="currentColor"/>
</svg>