<svg width="24" height="24" viewBox="0 0 24 24" fill="none" xmlns="http://www.w3.org/2000/svg">
  <path fill-rule="evenodd" clip-rule="evenodd" d="M8.129 16.103c0 .424.347.769.774.769h6.194a.772.772 0 0 0 .774-.77.772.772 0 0 0-.774-.769H8.903a.772.772 0 0 0-.774.77Zm0-4.103c0 .425.347.77.774.77H12a.772.772 0 0 0 .774-.77.772.772 0 0 0-.774-.77H8.903a.772.772 0 0 0-.774.77Z" fill="currentColor"/>
  <path fill-rule="evenodd" clip-rule="evenodd" d="M8.968 2.867A1.788 1.788 0 0 1 10.488 2h3.024c.635 0 1.199.344 1.52.867l.566.921c.56.044 1.09.09 1.553.134a2.764 2.764 0 0 1 2.505 2.533c.143 1.798.344 4.722.344 6.89 0 2.045-.18 4.367-.32 5.871a2.746 2.746 0 0 1-2.488 2.476C15.755 21.828 13.62 22 12 22s-3.755-.172-5.192-.308a2.746 2.746 0 0 1-2.489-2.476C4.18 17.712 4 15.39 4 13.344c0-2.167.201-5.091.344-6.889a2.764 2.764 0 0 1 2.505-2.533c.463-.043.994-.09 1.553-.134l.566-.921Zm-.944 2.495c-.366.03-.713.062-1.03.092a1.22 1.22 0 0 0-1.107 1.122c-.142 1.797-.339 4.668-.339 6.768 0 1.974.174 4.24.313 5.73a1.202 1.202 0 0 0 1.093 1.087c1.434.135 3.506.3 5.046.3 1.54 0 3.612-.165 5.046-.3a1.202 1.202 0 0 0 1.093-1.087c.139-1.49.313-3.757.313-5.73 0-2.1-.197-4.971-.34-6.768a1.22 1.22 0 0 0-1.107-1.122 98.51 98.51 0 0 0-1.03-.092 1.97 1.97 0 0 1-.223.614c-.292.513-.843.921-1.552.921H9.8c-.71 0-1.26-.408-1.552-.92a1.968 1.968 0 0 1-.224-.615Zm2.464-1.824c-.055 0-.136.03-.198.13l-.688 1.12a.428.428 0 0 0-.006.43c.061.11.138.14.204.14h4.4c.066 0 .143-.03.204-.139a.428.428 0 0 0-.006-.43l-.688-1.12c-.062-.1-.143-.13-.198-.13h-3.024Z" fill="currentColor"/>
</svg>